<?xml version="1.0" standalone="yes"?>
<svg xmlns="http://www.w3.org/2000/svg" width="1024" height="1024">
<path style="fill:#35d15d; stroke:none;" d="M764 300.432C696.133 308.634 636.144 360.914 639.063 434C639.726 450.603 643.011 467.639 649.432 483C653.055 491.665 659.606 500.077 662.199 509C665.153 519.164 656.127 537.047 653.288 547C651.714 552.519 649.216 559.786 654.353 564.27C659.468 568.735 666.295 566.13 672 564.63C684.72 561.285 697.989 555.194 711 553.486C719.431 552.379 729.841 559.267 738 561.367C753.482 565.351 771.071 566.52 787 564.793C805.772 562.758 824.948 556.027 841 546.182C916.477 499.891 927.523 389.437 859 331.46C845.527 320.061 829.783 311.671 813 306.351C797.61 301.472 780.136 298.482 764 300.432z"/>
<path style="fill:#faf7f2; stroke:none;" d="M830 364.578C815.946 367.592 801.167 375.914 788 381.676C765.529 391.51 742.671 400.642 720 410.017C710.523 413.936 687.42 418.828 682.288 428.145C679.803 432.659 682.241 438.171 686.146 440.942C694.054 446.553 711.365 452.215 721 453.352C727.777 454.151 734.87 446.658 740 443C755.038 432.276 770.129 421.584 785 410.63C788.605 407.975 801.872 395.363 806.431 397.502C809.834 399.098 804.396 404.667 803.273 406C797.185 413.228 790.534 419.993 784.196 427C776.09 435.961 768.279 445.198 760 454C756.603 457.611 749.946 462.945 748.932 467.997C747.831 473.488 756.404 477.942 760 480.623C770.274 488.282 780.7 495.742 791 503.367C795.237 506.505 800.34 511.155 806 510.66C818.938 509.528 819.157 492.761 820.908 483C826.294 452.968 832.023 422.994 837.617 393C839.235 384.325 846.907 360.953 830 364.578z"/>
<path style="fill:#194c38; stroke:none;" d="M188 436.432C176.419 437.846 165.287 440.015 155 445.893C128.822 460.851 118.347 498.892 141.125 521.882C154.47 535.351 174.325 538.949 192 543.109C202.504 545.581 228.179 547.38 224.527 563.999C221.648 577.1 202.437 578.296 192 575.969C179.624 573.21 177.344 563.917 167.93 557.953C161.442 553.843 135.505 553.396 129.157 557.845C117.837 565.776 131.588 586.345 138.118 592.882C157.326 612.108 187.966 616.986 214 613.685C225.727 612.198 236.718 609.009 247 603.107C273.318 588.002 282.378 548.851 259.875 526.118C247.038 513.15 228.942 510.206 212 506.132C201.608 503.634 175.968 502.289 176.498 487C176.944 474.166 194.514 471.997 204 473.46C215.213 475.19 218.355 482.575 227.059 488.155C233.197 492.09 258.729 492.543 264.647 488.047C274.473 480.581 262.619 462.166 256.792 456.118C240.41 439.112 210.705 433.661 188 436.432z"/>
<path style="fill:#35d15d; stroke:none;" d="M206.667 436.333L207.333 436.667L206.667 436.333M342.667 436.333L343.333 436.667L342.667 436.333z"/>
<path style="fill:#194c38; stroke:none;" d="M344 436.433C332.019 437.922 320.723 439.754 310 445.685C282.949 460.649 272.086 499.463 296.207 522.667C309.957 535.895 329.991 539.743 348 543.399C358.488 545.529 382.057 547.943 378.527 563.999C375.652 577.078 356.328 578.042 346 575.779C333.586 573.059 331.421 563.961 321.93 557.953C315.538 553.907 289.406 553.337 283.206 557.845C272.069 565.94 285.818 586.234 292.207 592.885C311.187 612.642 342.929 616.992 369 613.685C380.317 612.249 392.254 608.958 402 602.913C427.396 587.164 435.913 547.601 413.684 525.316C401.145 512.745 382.715 509.227 366 505.803C355.09 503.567 329.525 501.985 331.17 486C332.464 473.43 349.336 472.012 359 473.224C370.107 474.617 373.577 482.717 382.059 488.155C388.172 492.074 412.699 492.455 418.538 487.911C428.028 480.527 417.431 463.28 411.776 457.028C396.168 439.774 366.369 433.654 344 436.433z"/>
<path style="fill:#35d15d; stroke:none;" d="M361.667 436.333L363.333 436.667L361.667 436.333M215.667 437.333L217.333 437.667L215.667 437.333M333.667 437.333L335.333 437.667L333.667 437.333M369.667 437.333L370.333 437.667L369.667 437.333M170 439L171 440L170 439M325 439L326 440L325 439M167 440L168 441L167 440M229 440L230 441L229 440M383 440L384 441L383 440M429.667 440.333L430.333 440.667L429.667 440.333z"/>
<path style="fill:#194c38; stroke:none;" d="M431.004 440.534C416.347 443.918 429.547 470.178 432.351 479C442.182 509.931 451.882 540.931 461.271 572C464.316 582.076 466.619 601.618 476.126 607.575C481.141 610.718 487.351 610 493 610C499.93 610 508.938 611.472 514.927 607.215C520.875 602.986 521.979 594.553 523.859 588C528.173 572.96 532.775 557.987 537.271 543C539.471 535.669 541.7 528.344 543.857 521C544.213 519.787 545.142 514.299 546.938 514.299C548.688 514.299 549.895 520.748 550.271 522L557.432 546C561.48 559.693 565.604 573.415 570 587C571.891 592.846 572.826 600.185 577.287 604.73C585.071 612.661 604.078 611.495 613.989 608.598C625.545 605.22 627.398 585.831 630.667 576C636.519 558.396 641.815 540.602 647.667 523C650.217 515.33 655.646 505.191 655.185 497C654.792 490.031 649.36 482.581 647.098 476C644.079 467.217 641.993 458.169 640.595 449C640.126 445.923 640.688 440.969 636.784 440.227C628.678 438.686 621.958 446.124 619.552 453C612.301 473.731 607.319 496.581 602.43 518C600.97 524.395 599.031 530.653 597.376 536.998C597.112 538.012 596.482 542.701 594.942 542.701C593.125 542.701 592.073 536.27 591.714 535C589.367 526.691 587.112 518.343 584.891 510C580.719 494.333 576.495 478.679 572.37 463C570.666 456.523 569.738 447.989 563.91 443.785C558.052 439.56 548.823 440.873 542 441.011C529.636 441.262 526.009 450.489 523.375 461C518.759 479.416 513.503 497.744 508.288 516C506.292 522.989 504.488 530.028 502.422 536.998C502.087 538.128 501.288 542.701 499.591 542.701C497.681 542.701 496.715 535.359 496.374 534C494.112 524.965 491.597 515.989 489.158 507C485.181 492.341 481.395 477.622 477.286 463C475.548 456.816 474.651 449.143 469.622 444.621C461.735 437.531 440.799 438.272 431.004 440.534z"/>
<path style="fill:#35d15d; stroke:none;" d="M164 441L165 442L164 441M232 441L233 442L232 441M386 441L387 442L386 441M464 441L465 442L464 441M559 441L560 442L559 441M316 442L317 443L316 442M562 442L563 443L562 442M237 443L238 444L237 443M314 443L315 444L314 443M468 443L469 444L468 443M625 443L626 444L625 443M530 444L531 445L530 444M624 444L625 445L624 444M310 445L311 446L310 445M529 445L530 446L529 445M623 445L624 446L623 445M308 446L309 447L308 446M423 446L423 450L424 450L423 446M471 446L472 447L471 446M528 446L529 447L528 446M152 447L153 448L152 447M245 447L246 448L245 447M399 447L400 448L399 447M305 448L306 449L305 448M149 449L150 450L149 449M248 449L249 450L248 449M402 449L403 450L402 449M568 449L569 450L568 449M526 450L527 451L526 450M620 450L621 451L620 450M252 452L253 453L252 452M424 453L425 454L424 453M570 456L571 457L570 456M259 459L260 460L259 459M476 460L477 461L476 460M137 461L138 462L137 461M416 463L417 464L416 463M263 465L264 466L263 465M521 468L522 469L521 468M265 469L266 470L265 469M132 470L133 471L132 470M430 472L431 473L430 472M190.667 473.333L191.333 473.667L190.667 473.333M344.667 473.333L345.333 473.667L344.667 473.333M360.667 473.333L361.333 473.667L360.667 473.333M130 475L131 476L130 475M184 475L185 476L184 475M338 475L339 476L338 475M367 475L368 476L367 475M216 477L217 478L216 477M371 477L372 478L371 477M377 483L378 484L377 483M176.333 484.667L176.667 485.333L176.333 484.667M267 484L268 485L267 484M421 484L422 485L421 484M434 485L435 486L434 485M379 486L380 487L379 486M420 486L421 487L420 486M483 486L484 487L483 486M128 487L128 494L129 494L128 487M380 487L381 488L380 487M435 488L436 489L435 488M262 489L263 490L262 489M484 490L485 491L484 490M515 490L516 491L515 490M331 492L332 493L331 492M178 494L179 495L178 494M333 495L334 496L333 495M608 495L609 496L608 495M334 496L335 497L334 496M181 497L182 498L181 497M283.333 497.667L283.667 498.333L283.333 497.667M486 497L487 498L486 497M513 497L514 498L513 497M337 498L338 499L337 498M438 498L439 499L438 498M339 499L340 500L339 499M342 500L343 501L342 500M439 501L440 502L439 501M582 501L583 502L582 501M654 501L655 502L654 501M284 502L285 503L284 502M350.667 502.333L351.333 502.667L350.667 502.333M130 503L131 504L130 503M131 506L132 507L131 506M286 508L287 509L286 508M510 508L511 509L510 508M382 509L383 510L382 509M287 510L288 511L287 510M389 511L390 512L389 511M442 511L443 512L442 511M288 512L289 513L288 512M392 512L393 513L392 512M239 513L240 514L239 513M135 514L136 515L135 514M443 514L444 515L443 514M290 515L291 516L290 515M508 515L509 516L508 515M545 515L546 516L545 515M137 517L138 518L137 517M444 517L445 518L444 517M544 518L545 519L544 518M293 519L294 520L293 519M255 522L256 523L255 522M601 522L602 523L601 522M411 523L412 524L411 523M647 523L648 524L647 523M298 524L299 525L298 524M145 525L146 526L145 525M505 526L506 527L505 526M646 526L647 527L646 526M302 527L303 528L302 527M415 527L416 528L415 527M541 528L542 529L541 528M151 529L152 530L151 529M305 529L306 530L305 529M599 529L600 530L599 529M645 529L646 530L645 529M263 530L264 531L263 530M448 530L449 531L448 530M553 532L554 533L553 532M265 533L266 534L265 533M503 533L504 534L503 533M161 534L162 535L161 534M420 534L421 535L420 534M422 538L423 539L422 538M501 540L502 541L501 540M269 541L270 542L269 541M498 542L499 543L498 542M556 542L557 543L556 542M452 543L453 544L452 543M595 544L596 545L595 544M453 546L454 547L453 546M212 547L213 548L212 547M271.333 547.667L271.667 548.333L271.333 547.667M366 547L367 548L366 547M369 548L370 549L369 548M639 548L640 549L639 548M371 549L372 550L371 549M374 551L375 552L374 551M221 552L222 553L221 552M375 552L376 553L375 552M559 552L560 553L559 552M222 553L223 554L222 553M272.333 553.667L272.667 555.333L272.333 553.667M376 553L377 554L376 553M426 554L426 563L427 563L426 554M637 554L638 555L637 554M560 555L561 556L560 555M165 556L166 557L165 556M319 556L320 557L319 556M636 557L637 558L636 557M127 558L128 559L127 558M457 559L458 560L457 559M635 560L636 561L635 560M272.333 561.667L272.667 563.333L272.333 561.667M279.333 562.667L279.667 563.333L279.333 562.667M326 562L327 563L326 562M327 564L328 565L327 564M378 565L379 566L378 565M530 565L531 566L530 565M563 565L564 566L563 565M175 567L176 568L175 567M176 568L177 569L176 568M330 568L331 569L330 568M425.333 568.667L425.667 569.333L425.333 568.667M177 569L178 570L177 569M271.333 569.667L271.667 570.333L271.333 569.667M331 569L332 570L331 569M376 569L377 570L376 569M460 569L461 570L460 569M375 570L376 571L375 570M220 571L221 572L220 571M374 571L375 572L374 571M461 572L462 573L461 572M217 573L218 574L217 573M424 573L425 574L424 573M631 573L632 574L631 573M527 575L528 576L527 575M127 576L128 577L127 576M194.667 576.333L195.333 576.667L194.667 576.333M205.667 576.333L207.333 576.667L205.667 576.333M349.667 576.333L350.333 576.667L349.667 576.333M423 576L424 577L423 576M630 576L631 577L630 576M567 578L568 579L567 578M268 579L269 580L268 579M629 579L630 580L629 579M283 580L284 581L283 580M421 581L422 582L421 581M130 582L131 583L130 582M628 582L629 583L628 582M266 583L267 584L266 583M286 585L287 586L286 585M524 585L525 586L524 585M466 588L467 589L466 588M570 588L571 589L570 588M289 589L290 590L289 589M571 591L572 592L571 591M522 592L523 593L522 592M468 595L469 596L468 595M142 596L143 597L142 596M296 596L297 597L296 596M469 598L470 599L469 598M623 598L624 599L623 598M146 599L147 600L146 599M252 599L253 600L252 599M520 599L521 600L520 599M149 601L150 602L149 601M249 601L250 602L249 601M306 603L307 604L306 603M154 604L155 605L154 604M244 604L245 605L244 604M472 604L473 605L472 604M620 604L621 605L620 604M156 605L157 606L156 605M242 605L243 606L242 605M158 606L159 607L158 606M240 606L241 607L240 606M314 607L315 608L314 607M392 607L393 608L392 607M580 607L581 608L580 607M477 608L478 609L477 608M582 608L583 609L582 608M387 609L388 610L387 609M510 609L511 610L510 609M609.667 609.333L611.333 609.667L609.667 609.333M380 611L381 612L380 611M220.667 612.333L221.333 612.667L220.667 612.333M330.667 612.333L331.333 612.667L330.667 612.333M375.667 612.333L376.333 612.667L375.667 612.333M182.667 613.333L184.333 613.667L182.667 613.333M336.667 613.333L337.333 613.667L336.667 613.333M193 614L193 615L205 615L193 614M348 614L348 615L359 615L348 614z"/>
</svg>
